{
  "accessors": [
    {
      "bufferView": 2,
      "componentType": 5126,
      "count": 63817,
      "max": [
        0.343968003988266,
        0.37928399443626404,
        0.18971900641918182
      ],
      "min": [
        -0.3409869968891144,
        -0.3743799924850464,
        -0.16187800467014313
      ],
      "type": "VEC3"
    },
    {
      "bufferView": 2,
      "byteOffset": 765804,
      "componentType": 5126,
      "count": 63817,
      "max": [
        0.9999275207519531,
        0.9999995231628418,
        0.9999421834945679
      ],
      "min": [
        -0.9998520016670227,
        -0.9999490976333618,
        -0.9999998807907104
      ],
      "type": "VEC3"
    },
    {
      "bufferView": 3,
      "componentType": 5126,
      "count": 63817,
      "max": [
        0.9917091727256775,
        0.9998384714126587,
        0.9997905492782593,
        1.0
      ],
      "min": [
        -0.9998535513877869,
        -0.999999463558197,
        -0.9999874234199524,
        1.0
      ],
      "type": "VEC4"
    },
    {
      "bufferView": 1,
      "componentType": 5126,
      "count": 63817,
      "max": [
        0.8639209866523743,
        0.9999639987945557
      ],
      "min": [
        2.2000000171829015e-05,
        2.700000004551839e-05
      ],
      "type": "VEC2"
    },
    {
      "bufferView": 0,
      "componentType": 5125,
      "count": 375000,
      "type": "SCALAR"
    }
  ],
  "asset": {
    "extras": {
      "author": "Kless Gyzen (https://sketchfab.com/klessgyzen)",
      "license": "CC-BY-4.0 (http://creativecommons.org/licenses/by/4.0/)",
      "source": "https://sketchfab.com/3d-models/rock-17-free-rock-pack-vol3-112533f65f3d4848ae14d18ed59f0db2",
      "title": "Rock 17 (Free) Rock Pack Vol.3"
    },
    "generator": "Sketchfab-12.68.0",
    "version": "2.0"
  },
  "bufferViews": [
    {
      "buffer": 0,
      "byteLength": 1500000,
      "name": "floatBufferViews",
      "target": 34963
    },
    {
      "buffer": 0,
      "byteLength": 510536,
      "byteOffset": 1500000,
      "byteStride": 8,
      "name": "floatBufferViews",
      "target": 34962
    },
    {
      "buffer": 0,
      "byteLength": 1531608,
      "byteOffset": 2010536,
      "byteStride": 12,
      "name": "floatBufferViews",
      "target": 34962
    },
    {
      "buffer": 0,
      "byteLength": 1021072,
      "byteOffset": 3542144,
      "byteStride": 16,
      "name": "floatBufferViews",
      "target": 34962
    }
  ],
  "buffers": [
    {
      "byteLength": 4563216,
      "uri": "scene.bin"
    }
  ],
  "images": [
    {
      "uri": "textures/Rock_17_baseColor.jpeg"
    },
    {
      "uri": "textures/Rock_17_metallicRoughness.png"
    },
    {
      "uri": "textures/Rock_17_normal.png"
    }
  ],
  "materials": [
    {
      "doubleSided": true,
      "name": "Rock_17",
      "normalTexture": {
        "index": 2
      },
      "pbrMetallicRoughness": {
        "baseColorTexture": {
          "index": 0
        },
        "metallicFactor": 0.0,
        "metallicRoughnessTexture": {
          "index": 1
        }
      }
    }
  ],
  "meshes": [
    {
      "name": "Object_0",
      "primitives": [
        {
          "attributes": {
            "NORMAL": 1,
            "POSITION": 0,
            "TANGENT": 2,
            "TEXCOORD_0": 3
          },
          "indices": 4,
          "material": 0,
          "mode": 4
        }
      ]
    }
  ],
  "nodes": [
    {
      "children": [
        1
      ],
      "matrix": [
        1.0,
        0.0,
        0.0,
        0.0,
        0.0,
        2.220446049250313e-16,
        -1.0,
        0.0,
        0.0,
        1.0,
        2.220446049250313e-16,
        0.0,
        0.0,
        0.0,
        0.0,
        1.0
      ],
      "name": "Sketchfab_model"
    },
    {
      "children": [
        2
      ],
      "name": "rock_17.obj.cleaner.materialmerger.gles"
    },
    {
      "mesh": 0,
      "name": "Object_2"
    }
  ],
  "samplers": [
    {
      "magFilter": 9729,
      "minFilter": 9987,
      "wrapS": 10497,
      "wrapT": 10497
    }
  ],
  "scene": 0,
  "scenes": [
    {
      "name": "Sketchfab_Scene",
      "nodes": [
        0
      ]
    }
  ],
  "textures": [
    {
      "sampler": 0,
      "source": 0
    },
    {
      "sampler": 0,
      "source": 1
    },
    {
      "sampler": 0,
      "source": 2
    }
  ]
}
